HIERARCHY
ROOT Hips
{
	OFFSET -14.64140 90.27770 -84.91600
	CHANNELS 6 Xposition Yposition Zposition Zrotation Xrotation Yrotation
	JOINT Spine
	{
		OFFSET 0.00000 13.20850 -1.60440
		CHANNELS 3 Zrotation Xrotation Yrotation
		JOINT Spine1
		{
			OFFSET 0.00000 8.61720 0.00000
			CHANNELS 3 Zrotation Xrotation Yrotation
			JOINT Spine2
			{
				OFFSET 0.00000 8.61720 0.00000
				CHANNELS 3 Zrotation Xrotation Yrotation
				JOINT Spine3
				{
					OFFSET 0.00000 8.61720 0.00000
					CHANNELS 3 Zrotation Xrotation Yrotation
					JOINT Neck
					{
						OFFSET 0.00000 11.07920 1.10790
						CHANNELS 3 Zrotation Xrotation Yrotation
						JOINT Neck1
						{
							OFFSET 0.00000 7.08030 0.00000
							CHANNELS 3 Zrotation Xrotation Yrotation
							JOINT Head
							{
								OFFSET 0.00000 7.08030 0.00000
								CHANNELS 3 Zrotation Xrotation Yrotation
								End site
								{
									OFFSET 0.00000 0.00000 0.00000
								}
							}
						}
					}
					JOINT RightShoulder
					{
						OFFSET -0.01000 7.91370 5.19710
						CHANNELS 3 Zrotation Xrotation Yrotation
						JOINT RightArm
						{
							OFFSET -18.41580 0.00000 0.00000
							CHANNELS 3 Zrotation Xrotation Yrotation
							JOINT RightForeArm
							{
								OFFSET -29.11090 0.00000 0.00000
								CHANNELS 3 Zrotation Xrotation Yrotation
								JOINT RightHand
								{
									OFFSET -24.65040 0.00000 0.00000
									CHANNELS 3 Zrotation Xrotation Yrotation
									JOINT RightHandThumb1
									{
										OFFSET -5.35110 -0.85590 3.97910
										CHANNELS 3 Zrotation Xrotation Yrotation
										JOINT RightHandThumb2
										{
											OFFSET -4.52790 0.00000 0.00000
											CHANNELS 3 Zrotation Xrotation Yrotation
											JOINT RightHandThumb3
											{
												OFFSET -2.46980 0.00000 0.00000
												CHANNELS 3 Zrotation Xrotation Yrotation
												End site
												{
													OFFSET 0.00000 0.00000 0.00000
												}
											}
										}
									}
									JOINT RightHandIndex1
									{
										OFFSET -14.26970 0.00000 2.88140
										CHANNELS 3 Zrotation Xrotation Yrotation
										JOINT RightHandIndex2
										{
											OFFSET -5.48840 0.00000 0.00000
											CHANNELS 3 Zrotation Xrotation Yrotation
											JOINT RightHandIndex3
											{
												OFFSET -3.01860 0.00000 0.00000
												CHANNELS 3 Zrotation Xrotation Yrotation
												End site
												{
													OFFSET 0.00000 0.00000 0.00000
												}
											}
										}
									}
									JOINT RightHandMiddle1
									{
										OFFSET -14.26970 0.00000 -0.09150
										CHANNELS 3 Zrotation Xrotation Yrotation
										JOINT RightHandMiddle2
										{
											OFFSET -6.17440 0.00000 0.00000
											CHANNELS 3 Zrotation Xrotation Yrotation
											JOINT RightHandMiddle3
											{
												OFFSET -3.56740 0.00000 0.00000
												CHANNELS 3 Zrotation Xrotation Yrotation
												End site
												{
													OFFSET 0.00000 0.00000 0.00000
												}
											}
										}
									}
									JOINT RightHandRing1
									{
										OFFSET -12.69180 0.00000 -3.06430
										CHANNELS 3 Zrotation Xrotation Yrotation
										JOINT RightHandRing2
										{
											OFFSET -5.62560 0.00000 0.00000
											CHANNELS 3 Zrotation Xrotation Yrotation
											JOINT RightHandRing3
											{
												OFFSET -3.56740 0.00000 0.00000
												CHANNELS 3 Zrotation Xrotation Yrotation
												End site
												{
													OFFSET 0.00000 0.00000 0.00000
												}
											}
										}
									}
									JOINT RightHandPinky1
									{
										OFFSET -11.11390 0.00000 -6.03720
										CHANNELS 3 Zrotation Xrotation Yrotation
										JOINT RightHandPinky2
										{
											OFFSET -4.52790 0.00000 0.00000
											CHANNELS 3 Zrotation Xrotation Yrotation
											JOINT RightHandPinky3
											{
												OFFSET -2.46980 0.00000 0.00000
												CHANNELS 3 Zrotation Xrotation Yrotation
												End site
												{
													OFFSET 0.00000 0.00000 0.00000
												}
											}
										}
									}
								}
							}
						}
					}
					JOINT LeftShoulder
					{
						OFFSET 0.01000 7.91370 5.19710
						CHANNELS 3 Zrotation Xrotation Yrotation
						JOINT LeftArm
						{
							OFFSET 18.41580 0.00000 0.00000
							CHANNELS 3 Zrotation Xrotation Yrotation
							JOINT LeftForeArm
							{
								OFFSET 29.11090 0.00000 0.00000
								CHANNELS 3 Zrotation Xrotation Yrotation
								JOINT LeftHand
								{
									OFFSET 24.65040 0.00000 0.00000
									CHANNELS 3 Zrotation Xrotation Yrotation
									JOINT LeftHandThumb1
									{
										OFFSET 5.35110 -0.85590 3.97910
										CHANNELS 3 Zrotation Xrotation Yrotation
										JOINT LeftHandThumb2
										{
											OFFSET 4.52790 0.00000 0.00000
											CHANNELS 3 Zrotation Xrotation Yrotation
											JOINT LeftHandThumb3
											{
												OFFSET 2.46980 0.00000 0.00000
												CHANNELS 3 Zrotation Xrotation Yrotation
												End site
												{
													OFFSET 0.00000 0.00000 0.00000
												}
											}
										}
									}
									JOINT LeftHandIndex1
									{
										OFFSET 14.26970 0.00000 2.88140
										CHANNELS 3 Zrotation Xrotation Yrotation
										JOINT LeftHandIndex2
										{
											OFFSET 5.48840 0.00000 0.00000
											CHANNELS 3 Zrotation Xrotation Yrotation
											JOINT LeftHandIndex3
											{
												OFFSET 3.01860 0.00000 0.00000
												CHANNELS 3 Zrotation Xrotation Yrotation
												End site
												{
													OFFSET 0.00000 0.00000 0.00000
												}
											}
										}
									}
									JOINT LeftHandMiddle1
									{
										OFFSET 14.26970 0.00000 -0.09150
										CHANNELS 3 Zrotation Xrotation Yrotation
										JOINT LeftHandMiddle2
										{
											OFFSET 6.17440 0.00000 0.00000
											CHANNELS 3 Zrotation Xrotation Yrotation
											JOINT LeftHandMiddle3
											{
												OFFSET 3.56740 0.00000 0.00000
												CHANNELS 3 Zrotation Xrotation Yrotation
												End site
												{
													OFFSET 0.00000 0.00000 0.00000
												}
											}
										}
									}
									JOINT LeftHandRing1
									{
										OFFSET 12.69180 0.00000 -3.06430
										CHANNELS 3 Zrotation Xrotation Yrotation
										JOINT LeftHandRing2
										{
											OFFSET 5.62560 0.00000 0.00000
											CHANNELS 3 Zrotation Xrotation Yrotation
											JOINT LeftHandRing3
											{
												OFFSET 3.56740 0.00000 0.00000
												CHANNELS 3 Zrotation Xrotation Yrotation
												End site
												{
													OFFSET 0.00000 0.00000 0.00000
												}
											}
										}
									}
									JOINT LeftHandPinky1
									{
										OFFSET 11.11390 0.00000 -6.03720
										CHANNELS 3 Zrotation Xrotation Yrotation
										JOINT LeftHandPinky2
										{
											OFFSET 4.52790 0.00000 0.00000
											CHANNELS 3 Zrotation Xrotation Yrotation
											JOINT LeftHandPinky3
											{
												OFFSET 2.46980 0.00000 0.00000
												CHANNELS 3 Zrotation Xrotation Yrotation
												End site
												{
													OFFSET 0.00000 0.00000 0.00000
												}
											}
										}
									}
								}
							}
						}
					}
					JOINT pCube4
					{
						OFFSET 0.00000 10.91090 1.10790
						CHANNELS 3 Zrotation Xrotation Yrotation
						End site
						{
							OFFSET 0.00000 0.00000 0.00000
						}
					}
				}
			}
		}
	}
	JOINT RightUpLeg
	{
		OFFSET -9.98440 0.00000 0.00000
		CHANNELS 3 Zrotation Xrotation Yrotation
		JOINT RightLeg
		{
			OFFSET 0.00000 -42.11790 0.00000
			CHANNELS 3 Zrotation Xrotation Yrotation
			JOINT RightFoot
			{
				OFFSET 0.00000 -45.00020 -0.00000
				CHANNELS 3 Zrotation Xrotation Yrotation
				JOINT RightForeFoot
				{
					OFFSET 0.00000 -3.74820 0.00000
					CHANNELS 3 Zrotation Xrotation Yrotation
					JOINT RightToeBase
					{
						OFFSET 0.00000 0.06320 14.43120
						CHANNELS 3 Zrotation Xrotation Yrotation
						End site
						{
							OFFSET 0.00000 0.00000 0.00000
						}
					}
				}
			}
		}
	}
	JOINT LeftUpLeg
	{
		OFFSET 9.98440 0.00000 0.00000
		CHANNELS 3 Zrotation Xrotation Yrotation
		JOINT LeftLeg
		{
			OFFSET 0.00000 -42.11800 0.00000
			CHANNELS 3 Zrotation Xrotation Yrotation
			JOINT LeftFoot
			{
				OFFSET 0.00000 -45.00070 0.00000
				CHANNELS 3 Zrotation Xrotation Yrotation
				JOINT LeftForeFoot
				{
					OFFSET 0.00000 -3.74820 0.00000
					CHANNELS 3 Zrotation Xrotation Yrotation
					JOINT LeftToeBase
					{
						OFFSET 0.00000 0.06330 14.43110
						CHANNELS 3 Zrotation Xrotation Yrotation
						End site
						{
							OFFSET 0.00000 0.00000 0.00000
						}
					}
				}
			}
		}
	}
}
MOTION
Frames: 6
Frame Time: 0.050000
0.0 0.0 0.0 -0.0 0.0 -0.0 -3.5268124670689183 7.570078265617221 -0.5475280197824824 -0.7087372458183513 2.967617423981429 0.4480068815562036 -0.8341478082977025 0.20764212835885887 -0.5327007587455707 -0.21316859386392478 0.42123616665974667 -0.9387329795309053 -0.2617381760790224 7.286593999351267 0.25470649819566454 -0.34720393954286793 -1.4317069519889358 -3.323906763164011 -0.3440311452402973 -15.548665737456767 -0.24791375489845272 5.245954546783185 -0.8325152402496327 -10.985305415183964 68.62532398218958 -8.758352913908949 18.65344762844803 65.51817471400028 10.514791022879084 95.3814846638555 15.357122660129587 0.11889927975868031 -11.26261237791783 0.6662 0.2057 17.0925 -0.0 0.0 -33.8039 0.0 -0.0 -33.8039 -34.8611 0.0 -0.0 -0.0 -0.0 -0.0 -0.0 -0.0 -0.0 -39.5292 -0.0 -0.0 0.0001 -0.0 -0.0 0.0 -0.0 -0.0 -39.836 0.0 -0.0 -0.0 0.0 0.0 -0.0 0.0 0.0 -51.5202 0.0 -0.0 0.0 0.0 -0.0 -0.0 0.0 -0.0 -3.93852904848343 -0.5526397431927493 9.595202790565224 -69.24997580287801 12.333284396340739 -10.319895627597733 -61.469370964272855 -2.228504614427563 -81.82623330342741 -16.586434600837514 0.1471967971911493 1.3375016115596245 -11.4004 0.4367 -2.1684 -0.0 0.0 51.662 -0.0 0.0 51.662 51.1458 -0.0 -0.0 0.0 -0.0 0.0 -0.0 -0.0 -0.0 54.7253 -0.0 -0.0 0.0 -0.0 0.0 0.0 -0.0 0.0 52.0182 -0.0 -0.0 -0.0 0.0 0.0 0.0 -0.0 0.0 53.1081 0.0 -0.0 -0.0 0.0 -0.0 -0.0 0.0 -0.0 -0.0 -0.0 0.0 -10.7723 -22.4021 0.7241 0.0 71.1458 0.0011 6.4424 -4.2818 -1.0868 0.0 -0.0 0.0 -0.0 -3.537 0.0 -5.7053 -14.9258 11.3918 0.0001 32.3095 -0.0187 4.7164 -11.0815 7.5774 0.0 -0.0 0.0 -0.0 -7.085 0.0
0.0 0.0 0.0 -0.0 0.0 -0.0 -3.5239819029622623 7.516788696642195 -0.5468843970642518 -0.70096142282165 2.9772436494439534 0.4439314349392765 -0.8240069391427258 0.20044928598927644 -0.6218777189702446 -0.19978621437103178 0.427826552858678 -0.9576742544626672 -0.34673398397432437 7.256733435473106 0.3025637719119424 -0.33657905493817136 -1.43139041741439 -3.115016319478718 -0.35281627194842896 -15.555463297894411 -0.2352156693253024 5.6193136617318125 -0.9218790195569071 -10.948289194231926 68.69524950451756 -6.563917068090201 17.18019779946175 64.46272719819562 10.399089929999947 95.27337118456198 15.833394281482269 0.0743410401874769 -11.303448605179641 0.6662 0.2057 17.0925 -0.0 0.0 -33.8039 0.0 -0.0 -33.8039 -34.8611 0.0 -0.0 -0.0 -0.0 -0.0 -0.0 -0.0 -0.0 -39.5292 -0.0 -0.0 0.0001 -0.0 -0.0 0.0 -0.0 -0.0 -39.836 0.0 -0.0 -0.0 0.0 0.0 -0.0 0.0 0.0 -51.5202 0.0 -0.0 0.0 0.0 -0.0 -0.0 0.0 -0.0 -3.8522357449642235 -0.5332929539669684 9.595742186757708 -69.0908993931178 13.90213607658898 -10.869826629672005 -60.63020114728977 -0.3397993048174676 -84.78833479131805 -16.49100922303012 0.1768938990943837 1.1745575153579246 -11.4004 0.4367 -2.1684 -0.0 0.0 51.662 -0.0 0.0 51.662 51.1458 -0.0 -0.0 0.0 -0.0 0.0 -0.0 -0.0 -0.0 54.7253 -0.0 -0.0 0.0 -0.0 0.0 0.0 -0.0 0.0 52.0182 -0.0 -0.0 -0.0 0.0 0.0 0.0 -0.0 0.0 53.1081 0.0 -0.0 -0.0 0.0 -0.0 -0.0 0.0 -0.0 -0.0 -0.0 0.0 -10.7723 -22.4021 0.7241 0.0 71.1458 0.0011 6.4424 -4.2818 -1.0868 0.0 -0.0 0.0 -0.0 -3.537 0.0 -5.7053 -14.9258 11.3918 0.0001 32.3095 -0.0187 4.7164 -11.0815 7.5774 0.0 -0.0 0.0 -0.0 -7.085 0.0
0.0 0.0 0.0 -0.0 0.0 -0.0 -3.544150006727309 7.460673117726044 -0.538604661237387 -0.6996548070783001 2.986897923617103 0.44129811997698265 -0.8202167715196887 0.19555721396931536 -0.6751146929682428 -0.17927337144633324 0.4501548073078199 -0.9710687392119796 -0.4097183281343103 7.199374285080035 0.34653485901358433 -0.33481431019160474 -1.4336241117006294 -2.9918025883936368 -0.3659497415510318 -15.555400596746926 -0.22860283049407223 5.9891945359600465 -1.0063014784565003 -10.901028627689403 68.82657390178817 -3.946782205194886 15.550952713686222 63.62494368400383 10.0241331524043 94.8577689028443 16.274109104723014 0.038105191273603144 -11.377959288036807 0.6662 0.2057 17.0925 -0.0 0.0 -33.8039 0.0 -0.0 -33.8039 -34.8611 0.0 -0.0 -0.0 -0.0 -0.0 -0.0 -0.0 -0.0 -39.5292 -0.0 -0.0 0.0001 -0.0 -0.0 0.0 -0.0 -0.0 -39.836 0.0 -0.0 -0.0 0.0 0.0 -0.0 0.0 0.0 -51.5202 0.0 -0.0 0.0 0.0 -0.0 -0.0 0.0 -0.0 -3.873134335852073 -0.5347556878178089 9.607337443861185 -69.04745635425417 15.365024590047033 -10.827739905460449 -59.889558734075415 0.5871107584396372 -86.35972211341796 -16.61828655117464 0.193384934728072 1.1579936116735197 -11.4004 0.4367 -2.1684 -0.0 0.0 51.662 -0.0 0.0 51.662 51.1458 -0.0 -0.0 0.0 -0.0 0.0 -0.0 -0.0 -0.0 54.7253 -0.0 -0.0 0.0 -0.0 0.0 0.0 -0.0 0.0 52.0182 -0.0 -0.0 -0.0 0.0 0.0 0.0 -0.0 0.0 53.1081 0.0 -0.0 -0.0 0.0 -0.0 -0.0 0.0 -0.0 -0.0 -0.0 0.0 -10.7723 -22.4021 0.7241 0.0 71.1458 0.0011 6.4424 -4.2818 -1.0868 0.0 -0.0 0.0 -0.0 -3.537 0.0 -5.7053 -14.9258 11.3918 0.0001 32.3095 -0.0187 4.7164 -11.0815 7.5774 0.0 -0.0 0.0 -0.0 -7.085 0.0
0.0 0.0 0.0 -0.0 0.0 -0.0 -3.7120706950582454 7.497477222046819 -0.48660553038955534 -0.6996506890597951 2.9757529052671092 0.43980980847221035 -0.8238523609627275 0.20925578441393158 -0.7578044286802392 -0.1611186946168422 0.4871476428258404 -1.0038412971009314 -0.4747054211198415 7.0341163589570375 0.44545477807063216 -0.3487707049012617 -1.4335104908760647 -2.848540270867224 -0.4106364486645727 -15.496794889353806 -0.21890872407626122 6.577897845187267 -1.129054047528164 -10.730392802596143 68.69594624353657 -1.733544175452699 14.037595825655233 63.496594962688334 9.64511671851332 94.2064535123774 16.82123608481506 -0.0033884299998079067 -11.595845228544222 0.6662 0.2057 17.0925 -0.0 0.0 -33.8039 0.0 -0.0 -33.8039 -34.8611 0.0 -0.0 -0.0 -0.0 -0.0 -0.0 -0.0 -0.0 -39.5292 -0.0 -0.0 0.0001 -0.0 -0.0 0.0 -0.0 -0.0 -39.836 0.0 -0.0 -0.0 0.0 0.0 -0.0 0.0 0.0 -51.5202 0.0 -0.0 0.0 0.0 -0.0 -0.0 0.0 -0.0 -4.116997378509812 -0.575828851739313 9.521620705898204 -68.7759217318117 16.33765271308202 -10.641765140824349 -60.060368417488355 1.0407055595362655 -87.19783033661595 -16.850486680746165 0.20045969179277534 1.2467892283164104 -11.4004 0.4367 -2.1684 -0.0 0.0 51.662 -0.0 0.0 51.662 51.1458 -0.0 -0.0 0.0 -0.0 0.0 -0.0 -0.0 -0.0 54.7253 -0.0 -0.0 0.0 -0.0 0.0 0.0 -0.0 0.0 52.0182 -0.0 -0.0 -0.0 0.0 0.0 0.0 -0.0 0.0 53.1081 0.0 -0.0 -0.0 0.0 -0.0 -0.0 0.0 -0.0 -0.0 -0.0 0.0 -10.7723 -22.4021 0.7241 0.0 71.1458 0.0011 6.4424 -4.2818 -1.0868 0.0 -0.0 0.0 -0.0 -3.537 0.0 -5.7053 -14.9258 11.3918 0.0001 32.3095 -0.0187 4.7164 -11.0815 7.5774 0.0 -0.0 0.0 -0.0 -7.085 0.0
0.0 0.0 0.0 -0.0 0.0 -0.0 -3.734257316439856 7.480528129616137 -0.48253108737267947 -0.7006004571652086 2.981079729723126 0.43851605752335177 -0.82067352049323 0.21252744042883107 -0.7960275635682582 -0.14744171137324438 0.5024172175674351 -1.0125800605901183 -0.5224041068605446 6.948454988806127 0.499674938446029 -0.3551945819669292 -1.4477581180216508 -2.716096035768567 -0.4337611151623684 -15.500671840725593 -0.21127884508128844 6.851830827205862 -1.1888675388133336 -10.723515080536025 69.00955412237579 -0.30217164542562525 12.557834978288756 63.26728013814296 9.071369062859386 93.34399219315216 17.158021720050737 -0.03431678548461028 -11.671576742698862 0.6662 0.2057 17.0925 -0.0 0.0 -33.8039 0.0 -0.0 -33.8039 -34.8611 0.0 -0.0 -0.0 -0.0 -0.0 -0.0 -0.0 -0.0 -39.5292 -0.0 -0.0 0.0001 -0.0 -0.0 0.0 -0.0 -0.0 -39.836 0.0 -0.0 -0.0 0.0 0.0 -0.0 0.0 0.0 -51.5202 0.0 -0.0 0.0 0.0 -0.0 -0.0 0.0 -0.0 -4.18385721360588 -0.5870443153563715 9.543607579793804 -68.92868616196728 16.650321363043467 -10.211423025706457 -60.65340158298103 0.9584594700992886 -87.13374096389389 -16.999080948628503 0.19685030268608408 1.335105787131855 -11.4004 0.4367 -2.1684 -0.0 0.0 51.662 -0.0 0.0 51.662 51.1458 -0.0 -0.0 0.0 -0.0 0.0 -0.0 -0.0 -0.0 54.7253 -0.0 -0.0 0.0 -0.0 0.0 0.0 -0.0 0.0 52.0182 -0.0 -0.0 -0.0 0.0 0.0 0.0 -0.0 0.0 53.1081 0.0 -0.0 -0.0 0.0 -0.0 -0.0 0.0 -0.0 -0.0 -0.0 0.0 -10.7723 -22.4021 0.7241 0.0 71.1458 0.0011 6.4424 -4.2818 -1.0868 0.0 -0.0 0.0 -0.0 -3.537 0.0 -5.7053 -14.9258 11.3918 0.0001 32.3095 -0.0187 4.7164 -11.0815 7.5774 0.0 -0.0 0.0 -0.0 -7.085 0.0
0.0 0.0 0.0 -0.0 0.0 -0.0 -3.723331187105158 7.434058487073989 -0.49213216983858077 -0.7047288398341661 2.9945668335088564 0.4371966926665991 -0.8169390717681838 0.20351202143340888 -0.8267829947567656 -0.15014645739057675 0.5008370174368285 -1.0147027857820192 -0.5837740074303447 6.9456005401346355 0.6137935176001375 -0.3620020671460533 -1.4508684580411442 -2.4008683757718514 -0.4684818293867056 -15.50777161899167 -0.18845334516430026 6.885903522742643 -1.1996876903158098 -10.780282813963447 69.21072911486056 0.3063713227165193 11.626574924035536 62.528716662507975 8.515381590353119 92.74985137835944 17.38710828718165 -0.04828068392706803 -11.63009113162735 0.6662 0.2057 17.0925 -0.0 0.0 -33.8039 0.0 -0.0 -33.8039 -34.8611 0.0 -0.0 -0.0 -0.0 -0.0 -0.0 -0.0 -0.0 -39.5292 -0.0 -0.0 0.0001 -0.0 -0.0 0.0 -0.0 -0.0 -39.836 0.0 -0.0 -0.0 0.0 0.0 -0.0 0.0 0.0 -51.5202 0.0 -0.0 0.0 0.0 -0.0 -0.0 0.0 -0.0 -4.065870839399216 -0.5660914499074329 9.610218814802497 -68.99601778950993 16.29450500115444 -10.192731258838958 -61.24114409898706 0.5252666367130625 -86.67334371053416 -16.995729276881487 0.1900134090988386 1.4118385911593139 -11.4004 0.4367 -2.1684 -0.0 0.0 51.662 -0.0 0.0 51.662 51.1458 -0.0 -0.0 0.0 -0.0 0.0 -0.0 -0.0 -0.0 54.7253 -0.0 -0.0 0.0 -0.0 0.0 0.0 -0.0 0.0 52.0182 -0.0 -0.0 -0.0 0.0 0.0 0.0 -0.0 0.0 53.1081 0.0 -0.0 -0.0 0.0 -0.0 -0.0 0.0 -0.0 -0.0 -0.0 0.0 -10.7723 -22.4021 0.7241 0.0 71.1458 0.0011 6.4424 -4.2818 -1.0868 0.0 -0.0 0.0 -0.0 -3.537 0.0 -5.7053 -14.9258 11.3918 0.0001 32.3095 -0.0187 4.7164 -11.0815 7.5774 0.0 -0.0 0.0 -0.0 -7.085 0.0
